<svg width="68" height="68" viewBox="0 0 68 68" fill="none" xmlns="http://www.w3.org/2000/svg">
  <defs>
    <linearGradient id="greyGradient" x1="0%" y1="0%" x2="0%" y2="100%">
      <stop offset="0%" style="stop-color:#A8A8A8;stop-opacity:1" />
      <stop offset="100%" style="stop-color:#666666;stop-opacity:1" />
    </linearGradient>
  </defs>
  
  <!-- Main document body with clipped corner -->
  <path d="M 16 15 C 16 13.3431 17.3431 12 19 12 L 42 12 L 42 18 L 48 18 L 48 49 C 48 50.6569 46.6569 52 45 52 L 19 52 C 17.3431 52 16 50.6569 16 49 Z" 
        fill="url(#greyGradient)" fill-opacity="0.2" stroke="url(#greyGradient)" stroke-width="2"/>
  
  <!-- Folded corner -->
  <path d="M 42 12 L 42 18 L 48 18 Z" fill="url(#greyGradient)" fill-opacity="0.4"/>
  <line x1="42" y1="12" x2="48" y2="18" stroke="url(#greyGradient)" stroke-width="1.5"/>
  
  <!-- Made text lines thicker and more visible with increased stroke width and opacity -->
  <line x1="22" y1="24" x2="42" y2="24" stroke="#888888" stroke-width="2.5" stroke-linecap="round" opacity="0.9"/>
  <line x1="22" y1="30" x2="42" y2="30" stroke="#888888" stroke-width="2.5" stroke-linecap="round" opacity="0.9"/>
  <line x1="22" y1="36" x2="38" y2="36" stroke="#888888" stroke-width="2.5" stroke-linecap="round" opacity="0.9"/>
  <line x1="22" y1="42" x2="40" y2="42" stroke="#888888" stroke-width="2.5" stroke-linecap="round" opacity="0.9"/>
  
  <!-- Pen icon -->
  <g transform="translate(38, 40) rotate(-45)">
    <rect x="0" y="0" width="3.5" height="14" rx="1" fill="url(#greyGradient)"/>
    <path d="M 0 14 L 1.75 18 L 3.5 14 Z" fill="#666666"/>
    <circle cx="1.75" cy="-1.5" r="1.75" fill="url(#greyGradient)"/>
  </g>
</svg>
